<svg width="24" height="24" viewBox="0 0 24 24" fill="none" xmlns="http://www.w3.org/2000/svg">
<path d="M20.7729 8.36985H20.7246H20.6764C19.6874 8.58694 18.8673 10.0101 18.0472 11.5538C17.9508 11.7467 17.8784 11.8915 17.7819 12.0362C17.7095 12.1809 17.6372 12.398 17.5166 12.7839C17.4683 12.9528 17.396 13.1457 17.3719 13.2422C17.2754 13.3628 17.203 13.5075 17.1307 13.6281C17.0824 13.4593 17.0583 13.2905 17.0101 13.1698C16.9859 13.0734 16.9618 12.9769 16.9377 12.9045C16.7447 12.0603 16.6482 11.7467 16.407 11.6261C16.3829 11.602 16.3347 11.5779 16.3106 11.5538C16.1417 11.4573 15.9487 11.3849 15.7799 11.3849H15.7558C16.0693 11.1678 16.5035 10.999 17.0342 10.8543L17.0824 10.8302L17.1065 10.806L17.5648 10.396C17.6372 10.2513 17.6854 10.1065 17.6854 9.93769C17.6854 9.81709 17.6372 9.14171 16.6482 9.14171C16.1176 9.14171 15.7075 9.43116 15.3216 9.67236C15.0563 9.86533 14.791 10.0342 14.5739 10.0342C14.5015 10.0342 14.4533 10.0342 14.3809 10.0342C13.8744 10.0583 13.5608 10.1548 13.2714 10.5889L10.5216 0L7 13.5558L10.5457 10.4201L11.1005 12.591L11.0764 12.6151L11.0523 12.6392C10.8352 12.8563 10.7146 13.1698 10.7146 13.5317C10.7146 13.9658 10.9317 14.1588 11.1246 14.2794C11.2693 14.3518 11.4623 14.3759 11.5347 14.3759C11.5588 14.3759 11.5829 14.3759 11.5829 14.3759L14.0673 24L16.0211 16.5226C16.1899 17.0533 16.4794 17.5598 17.0824 17.5598C17.1548 17.5598 17.2271 17.5357 17.2995 17.5357C17.9749 17.4874 18.0472 16.6673 18.0955 16.2332V16.1367C18.1196 15.9678 18.2161 15.799 18.2884 15.6302C18.3608 15.4854 18.409 15.3648 18.4573 15.2201L18.5055 15.0995C18.9397 14.1347 18.9879 14.0382 19.5668 13.0975L19.591 13.0734L19.6151 13.0492C19.7357 12.7598 19.9286 12.5186 20.1216 12.2291C20.2422 12.0603 20.3387 11.9156 20.4593 11.7467C20.5799 11.5296 20.7487 11.3367 20.9417 11.1437C21.3276 10.7095 21.7859 10.2271 21.7859 9.40704C21.7377 8.9005 21.3518 8.36985 20.7729 8.36985ZM14.7186 13.001C14.7668 13.2663 14.8392 13.5317 14.8392 13.6523C14.8633 13.7005 14.8633 13.8211 14.8633 13.9658C14.8633 14.1829 14.8392 14.593 14.791 15.2925V15.8955C14.791 16.2814 14.8392 16.6673 14.9116 17.0533C14.9116 17.7769 14.7427 18.3317 14.4291 18.3317C14.3809 18.3317 14.3327 18.3075 14.2603 18.2593C13.9709 18.2593 14.0191 17.6804 13.9709 17.4874C13.8744 17.1497 13.8261 16.8844 13.8261 16.6915C13.8261 16.6191 13.8503 16.4503 13.8744 16.1849C13.9467 15.6543 13.9709 15.2442 13.9709 14.9789C13.9709 14.5688 13.9226 13.7005 13.9226 13.2181C13.9226 13.194 13.9226 13.1698 13.9226 13.1457C13.9226 13.1457 13.9226 13.1457 13.9226 13.1216C13.8744 12.8804 13.7296 12.2533 13.7296 12.1327C13.7055 12.1327 13.6814 12.1327 13.6573 12.1568C13.0302 12.2774 12.6442 12.8322 12.0894 13.4352C11.8482 13.7246 11.6312 13.8452 11.4382 13.8452C11.4141 13.8452 11.3899 13.8452 11.3658 13.8452C11.3176 13.8452 11.2935 13.8211 11.2693 13.8211C11.1487 13.7487 11.1246 13.6523 11.1246 13.5075C11.1246 13.3628 11.1487 13.2422 11.197 13.1457C11.2211 13.0734 11.2693 13.0251 11.3176 12.9528C11.6794 12.6874 12.1136 12.4221 12.3789 12.0844C12.4513 11.9879 13.3437 11.5055 13.3678 11.409C13.392 11.3608 13.4161 11.3126 13.4402 11.2643C13.8261 10.4683 14.0432 10.5648 14.598 10.5166C15.3216 10.4683 15.9246 9.6 16.6482 9.6C17.0101 9.6 17.203 9.7206 17.203 9.91357C17.203 10.0824 17.1065 10.2513 16.8894 10.3477C15.7558 10.6131 15.0563 11.0955 14.7668 11.7709C14.6462 11.9879 14.598 12.1809 14.598 12.398C14.6221 12.5427 14.6704 12.7598 14.7186 13.001ZM20.001 11.4814C19.7116 11.9397 19.3497 12.3497 19.1327 12.8563C18.5055 13.8693 18.4814 13.9417 17.9508 15.0754C17.9025 15.3166 17.6613 15.7025 17.5889 16.0884C17.5407 16.5467 17.5407 17.0774 17.203 17.0774C17.1307 17.1015 17.0824 17.1015 17.0342 17.1015C16.6482 17.1015 16.3829 16.5709 16.2864 15.5337C16.2864 15.5095 16.2864 15.4854 16.2623 15.4613C16.0935 14.6412 15.1769 13.6523 15.1769 12.808C15.1769 12.7116 15.1769 12.6392 15.201 12.5427C15.2251 12.4704 15.2492 12.4221 15.2734 12.3739L15.394 12.1327C15.4905 11.9879 15.6111 11.9156 15.7558 11.9156C15.804 11.9156 15.8523 11.9156 15.9005 11.9397C15.9729 11.9638 16.0693 12.0121 16.1417 12.0844C16.2623 12.1085 16.4794 13.194 16.6724 13.9176C16.7447 14.2312 16.8412 14.4965 16.8894 14.5447C17.4683 14.5447 17.4201 13.8693 17.7578 13.5317C17.8543 13.3146 18.0714 12.4945 18.1678 12.3015C18.6744 11.3849 19.7116 9.09347 20.7246 8.87638C21.0141 8.87638 21.2312 9.16583 21.2312 9.40704C21.2553 10.3719 20.4352 10.7337 20.001 11.4814Z" fill="white"/>
</svg>
